<?xml version="1.0" standalone="no"?>
<!DOCTYPE svg PUBLIC "-//W3C//DTD SVG 20010904//EN"
 "http://www.w3.org/TR/2001/REC-SVG-20010904/DTD/svg10.dtd">
<svg version="1.0" xmlns="http://www.w3.org/2000/svg"
 width="993.000000pt" height="251.000000pt" viewBox="0 0 993.000000 251.000000"
 preserveAspectRatio="xMidYMid meet">

<g transform="translate(0.000000,251.000000) scale(0.100000,-0.100000)"
fill="#000000" stroke="none">
<path d="M1360 2251 c-19 -4 -51 -15 -72 -25 -34 -16 -38 -16 -68 -1 -22 11
-54 16 -113 14 -102 -2 -194 -40 -230 -95 -19 -29 -27 -34 -63 -34 -116 0
-233 -82 -268 -187 -14 -42 -24 -56 -50 -68 -100 -47 -179 -198 -162 -306 19
-119 82 -206 183 -255 75 -36 173 -37 251 -4 l51 22 56 -27 c49 -24 64 -27
129 -23 48 3 89 13 120 28 l47 22 27 -25 c15 -14 59 -41 98 -60 131 -66 184
-151 192 -310 6 -124 7 -125 149 -118 56 3 105 10 110 14 4 5 8 31 8 59 0 43
4 54 27 71 25 18 31 19 85 8 70 -15 116 -6 184 38 69 43 120 118 134 196 4 22
13 47 21 55 7 8 24 40 38 70 37 79 37 180 -1 253 -22 43 -27 66 -28 132 -2
142 -54 233 -165 288 -36 18 -60 39 -80 71 -57 90 -172 144 -277 132 -49 -6
-57 -4 -91 23 -62 48 -141 62 -242 42z m-425 -212 c9 -39 39 -51 77 -30 26 15
29 15 50 -6 19 -20 20 -25 9 -46 -19 -36 -10 -61 27 -72 27 -8 32 -14 32 -41
0 -28 -4 -33 -31 -39 -38 -9 -46 -28 -29 -72 11 -32 10 -37 -8 -56 -20 -19
-22 -20 -48 -3 -35 24 -70 9 -79 -33 -5 -26 -11 -31 -36 -31 -23 0 -31 6 -43
35 -19 45 -37 51 -76 29 -29 -18 -31 -18 -51 3 -20 19 -20 22 -5 52 21 39 8
67 -34 76 -26 6 -30 11 -30 40 0 29 3 33 34 39 42 8 51 29 29 67 -17 28 -17
30 5 51 21 21 23 21 57 5 34 -16 36 -16 55 3 11 11 20 29 20 40 0 16 7 20 34
20 30 0 35 -4 41 -31z m725 -85 c8 -19 15 -24 28 -19 39 16 47 11 45 -27 -2
-33 1 -39 22 -44 32 -8 32 -32 0 -44 -21 -8 -25 -15 -23 -42 3 -29 0 -33 -22
-34 -45 -2 -50 -4 -50 -19 0 -9 -9 -15 -25 -15 -15 0 -25 6 -25 14 0 18 -23
27 -41 16 -22 -14 -41 9 -33 42 5 24 2 30 -15 35 -27 7 -27 40 -1 48 15 5 19
14 17 43 -2 38 6 43 45 27 13 -5 20 0 28 19 5 14 16 26 25 26 9 0 20 -12 25
-26z m-328 -14 c13 -40 39 -54 64 -35 28 21 43 18 56 -10 8 -18 8 -28 -1 -39
-19 -23 -4 -54 29 -61 43 -9 42 -52 0 -68 -36 -14 -43 -29 -28 -63 10 -21 8
-28 -10 -47 -17 -17 -24 -19 -34 -9 -23 23 -58 14 -70 -19 -9 -26 -15 -30 -41
-27 -24 2 -33 9 -37 28 -7 28 -37 37 -68 21 -15 -8 -24 -6 -40 7 -18 16 -19
20 -6 44 18 35 9 55 -27 63 -24 5 -29 12 -29 35 0 23 5 30 29 35 37 8 45 28
26 64 -13 26 -13 30 6 47 18 17 22 17 47 2 31 -19 62 -8 62 20 0 48 56 57 72
12z m404 -275 c8 -43 39 -55 79 -29 26 17 27 17 52 -9 25 -25 26 -27 9 -51
-25 -39 -12 -73 30 -80 31 -6 34 -10 34 -41 0 -30 -4 -35 -32 -43 -46 -12 -57
-35 -35 -74 18 -31 18 -32 -6 -56 -24 -23 -25 -24 -51 -7 -37 25 -75 13 -83
-25 -5 -27 -9 -30 -43 -30 -34 0 -39 3 -45 30 -8 38 -43 49 -80 24 -26 -17
-27 -17 -52 8 -24 24 -24 27 -9 51 21 31 12 77 -14 77 -37 0 -50 12 -50 46 0
30 3 34 35 40 43 8 56 41 30 80 -17 26 -16 27 8 52 25 25 26 25 52 8 27 -18
75 -15 75 4 0 5 4 20 10 34 8 21 16 26 44 26 32 0 36 -3 42 -35z m-663 -46 c5
-17 11 -20 34 -15 38 8 58 -6 45 -31 -12 -22 -5 -36 21 -46 25 -9 21 -32 -8
-45 -27 -13 -30 -19 -15 -42 14 -22 -7 -40 -40 -34 -22 5 -31 1 -39 -15 -15
-27 -41 -27 -48 -1 -4 17 -12 20 -42 18 -35 -3 -36 -2 -34 29 2 24 -2 35 -17
43 -26 14 -26 46 0 53 16 4 20 12 18 39 -3 32 -2 33 30 30 27 -2 35 2 39 18 7
28 49 27 56 -1z"/>
<path d="M846 1899 c-34 -27 -36 -77 -3 -107 72 -67 172 34 102 103 -30 30
-64 32 -99 4z"/>
<path d="M1594 1854 c-9 -34 15 -59 49 -50 51 12 40 76 -13 76 -24 0 -31 -5
-36 -26z"/>
<path d="M1270 1823 c-44 -18 -52 -72 -15 -109 44 -43 105 -13 105 52 0 48
-43 75 -90 57z"/>
<path d="M1636 1519 c-50 -39 -26 -128 39 -141 11 -3 32 2 47 9 54 26 64 85
22 127 -32 32 -72 34 -108 5z"/>
<path d="M1017 1543 c-13 -12 -7 -60 8 -73 12 -10 20 -9 40 4 27 18 32 45 13
64 -13 13 -50 16 -61 5z"/>
<path d="M4047 1723 c-4 -3 -7 -93 -7 -200 l0 -193 35 0 35 0 0 194 c0 168 -2
195 -16 200 -20 8 -39 8 -47 -1z"/>
<path d="M4657 1723 c-4 -3 -7 -37 -7 -75 0 -37 -3 -68 -7 -68 -5 0 -17 7 -27
15 -26 19 -71 19 -101 -1 -48 -32 -70 -139 -41 -208 27 -65 91 -84 154 -46 26
16 32 17 32 5 0 -10 10 -15 30 -15 l30 0 0 194 c0 168 -2 195 -16 200 -20 8
-39 8 -47 -1z m-32 -188 c19 -18 25 -35 25 -70 0 -71 -56 -118 -94 -79 -33 33
-33 119 0 155 23 25 40 24 69 -6z"/>
<path d="M5517 1723 c-4 -3 -7 -93 -7 -200 l0 -193 24 0 c13 0 27 7 30 16 5
13 9 13 32 -5 32 -25 81 -27 113 -5 71 50 67 230 -5 263 -34 15 -63 14 -98 -4
-15 -8 -29 -15 -31 -15 -1 0 -3 30 -4 67 -1 36 -4 70 -7 75 -6 10 -38 11 -47
1z m157 -195 c34 -48 10 -148 -35 -148 -11 0 -31 11 -44 24 -19 19 -23 32 -21
67 5 69 67 104 100 57z"/>
<path d="M7117 1723 c-4 -3 -7 -94 -7 -200 l0 -194 31 3 31 3 0 186 c1 102 -2
191 -6 197 -8 13 -39 16 -49 5z"/>
<path d="M8070 1710 c-11 -11 -20 -30 -21 -42 -3 -59 -5 -63 -26 -66 -17 -2
-23 -10 -23 -27 0 -17 6 -25 23 -27 21 -3 22 -8 25 -110 l3 -108 29 0 30 0 0
110 0 110 30 0 c25 0 30 4 30 25 0 20 -5 25 -25 25 -31 0 -42 23 -27 56 8 16
20 24 37 24 20 0 25 5 25 25 0 23 -4 25 -45 25 -32 0 -51 -6 -65 -20z"/>
<path d="M2640 1515 l0 -185 35 0 34 0 3 93 3 92 60 -92 c58 -90 61 -93 98
-93 20 0 37 4 37 9 0 5 -27 50 -60 101 l-60 91 55 71 c30 39 55 77 55 85 0 8
-12 13 -33 13 -30 0 -38 -7 -88 -80 -30 -44 -57 -80 -61 -80 -5 0 -8 36 -8 80
l0 80 -35 0 -35 0 0 -185z"/>
<path d="M7560 1640 c0 -24 -6 -33 -26 -40 -31 -12 -29 -44 4 -48 21 -3 22 -8
22 -98 0 -82 3 -97 21 -115 15 -15 30 -19 62 -17 37 3 42 6 45 29 3 23 0 26
-22 22 -33 -7 -42 17 -41 105 l1 67 32 3 c26 3 32 8 32 27 0 19 -6 24 -32 27
-29 3 -32 7 -33 33 0 26 -4 30 -32 33 -31 3 -33 1 -33 -28z"/>
<path d="M3053 1590 c-27 -16 -33 -17 -33 -5 0 10 -10 15 -30 15 l-30 0 0
-135 0 -135 35 0 34 0 3 97 c3 94 4 98 30 113 21 11 32 12 45 4 15 -9 18 -29
21 -113 l3 -101 34 0 35 0 0 105 c0 114 -9 147 -47 164 -35 16 -64 14 -100 -9z"/>
<path d="M3335 1596 c-16 -7 -36 -24 -44 -37 -37 -61 -29 -168 14 -209 32 -30
107 -38 158 -16 86 35 102 184 28 250 -27 25 -115 32 -156 12z m106 -55 c19
-16 23 -28 23 -76 0 -48 -4 -60 -23 -76 -54 -44 -101 -8 -101 76 0 84 47 120
101 76z"/>
<path d="M4228 1594 c-41 -21 -58 -63 -58 -138 0 -58 3 -69 29 -98 24 -27 36
-32 87 -36 77 -5 114 9 114 44 0 20 -4 25 -16 20 -74 -28 -144 -10 -144 39 0
25 1 25 85 25 l85 0 0 40 c0 52 -18 88 -51 106 -36 18 -96 17 -131 -2z m102
-44 c37 -37 26 -50 -39 -50 -55 0 -59 2 -54 20 6 22 39 50 60 50 7 0 22 -9 33
-20z"/>
<path d="M4828 1595 c-32 -18 -43 -50 -35 -107 3 -22 1 -51 -5 -64 -8 -18 -8
-31 1 -50 10 -22 9 -30 -4 -44 -45 -50 8 -110 98 -110 89 0 137 34 137 99 0
41 -35 63 -113 70 -48 5 -63 10 -65 24 -3 14 4 17 47 17 66 0 105 31 105 83 0
26 5 37 18 40 18 5 25 32 11 40 -5 3 -44 8 -88 11 -62 5 -86 3 -107 -9z m92
-45 c24 -24 25 -38 3 -62 -31 -35 -73 -16 -73 34 0 15 8 31 18 37 24 15 29 14
52 -9z m25 -245 c0 -28 -2 -30 -45 -33 -52 -4 -77 17 -59 50 8 15 19 18 57 16
45 -3 47 -4 47 -33z"/>
<path d="M5118 1594 c-41 -21 -58 -63 -58 -138 0 -58 3 -69 29 -98 24 -27 36
-32 87 -36 77 -5 114 9 114 44 0 20 -4 25 -16 20 -74 -28 -144 -10 -144 39 0
25 1 25 85 25 l85 0 0 40 c0 52 -18 88 -51 106 -36 18 -96 17 -131 -2z m102
-44 c36 -36 26 -50 -35 -50 -48 0 -55 3 -55 19 0 20 35 51 57 51 7 0 22 -9 33
-20z"/>
<path d="M5860 1598 c-15 -8 -26 -24 -28 -41 -4 -32 -5 -31 41 -12 46 19 72
19 91 -1 29 -29 19 -41 -41 -49 -89 -11 -131 -64 -102 -128 21 -45 94 -62 138
-31 18 13 25 14 31 4 4 -6 18 -10 31 -8 24 3 24 4 23 116 -1 101 -4 116 -22
135 -26 26 -124 35 -162 15z m118 -175 c-4 -37 -49 -69 -77 -54 -26 14 -28 56
-3 70 9 6 32 11 50 11 30 0 33 -2 30 -27z"/>
<path d="M6137 1590 c-55 -43 -42 -110 27 -140 51 -23 69 -41 60 -63 -9 -25
-39 -29 -79 -12 -47 19 -45 20 -45 -10 0 -68 169 -57 187 13 15 58 0 86 -65
113 -50 22 -64 46 -36 66 18 13 39 12 78 -3 24 -9 21 33 -3 46 -32 17 -96 12
-124 -10z"/>
<path d="M6400 1588 c-43 -29 -64 -84 -56 -150 9 -85 49 -118 142 -118 64 0
94 14 94 46 0 21 -4 25 -17 20 -9 -4 -36 -10 -59 -13 -36 -5 -46 -2 -68 20
-46 46 -36 56 62 59 l87 3 -1 48 c-1 65 -33 98 -101 104 -39 4 -55 0 -83 -19z
m97 -33 c11 -8 23 -24 26 -35 5 -18 1 -20 -54 -20 -65 0 -72 8 -34 45 28 29
33 30 62 10z"/>
<path d="M6894 1600 c-12 -5 -25 -13 -29 -19 -9 -16 -25 -13 -25 4 0 9 -9 15
-25 15 l-25 0 0 -190 0 -190 30 0 30 0 0 65 c0 69 3 73 34 50 26 -20 76 -19
105 1 71 50 67 230 -5 263 -29 13 -60 13 -90 1z m56 -65 c36 -44 14 -155 -32
-155 -65 0 -95 108 -42 149 31 25 57 27 74 6z"/>
<path d="M7288 1599 c-28 -11 -41 -31 -32 -53 5 -12 10 -12 39 0 61 25 105 14
105 -27 0 -12 -12 -19 -47 -24 -57 -8 -98 -28 -107 -50 -34 -89 61 -160 141
-108 19 13 28 14 31 5 2 -6 15 -12 28 -12 24 0 24 0 24 109 0 60 -3 117 -6
126 -15 39 -111 57 -176 34z m115 -168 c10 -40 -38 -80 -73 -61 -25 13 -26 55
-2 69 29 17 69 13 75 -8z"/>
<path d="M7788 1592 c-38 -23 -58 -69 -58 -132 0 -62 20 -104 60 -125 47 -24
163 -17 174 11 9 23 -5 46 -23 38 -9 -3 -35 -8 -57 -11 -33 -4 -46 -1 -63 16
-11 11 -21 30 -21 41 0 17 8 19 87 22 99 3 102 6 83 78 -19 71 -115 104 -182
62z m102 -42 c36 -36 26 -50 -35 -50 -42 0 -55 3 -55 15 0 19 36 55 55 55 8 0
24 -9 35 -20z"/>
<path d="M8270 1597 c-43 -22 -70 -74 -70 -134 0 -95 44 -143 132 -143 110 0
173 118 121 227 -26 56 -120 82 -183 50z m107 -63 c22 -22 25 -32 20 -77 -11
-120 -127 -116 -127 5 0 88 54 124 107 72z"/>
<path d="M8620 1590 c-24 -24 -30 -25 -30 -4 0 11 -8 14 -27 12 l-28 -3 0
-130 0 -130 33 -3 32 -3 0 84 c0 71 3 89 21 112 16 19 28 26 45 22 21 -4 24
-1 24 29 0 30 -3 34 -25 34 -14 0 -34 -9 -45 -20z"/>
<path d="M8833 1590 c-27 -16 -33 -17 -33 -5 0 10 -10 15 -30 15 l-30 0 0
-135 0 -135 35 0 35 0 0 94 c0 87 2 96 22 110 28 20 43 20 62 0 12 -12 16 -37
16 -110 l0 -94 35 0 35 0 0 95 c0 89 1 95 25 111 30 19 61 11 69 -19 3 -12 6
-59 6 -104 l0 -83 36 0 36 0 -4 116 c-3 112 -4 117 -31 140 -34 29 -71 30
-115 4 l-33 -20 -26 20 c-32 25 -69 25 -110 0z"/>
<path d="M9272 1590 c-45 -27 -66 -80 -59 -147 10 -95 59 -131 163 -120 66 7
74 12 74 44 0 20 -4 24 -17 19 -9 -4 -36 -10 -59 -13 -36 -5 -46 -2 -68 20
-46 46 -36 56 62 59 l87 3 -1 49 c0 42 -5 53 -32 77 -40 36 -100 39 -150 9z
m95 -35 c11 -8 23 -24 26 -35 5 -18 1 -20 -54 -20 -65 0 -72 8 -34 45 28 29
33 30 62 10z"/>
<path d="M3570 1589 c0 -7 16 -67 36 -135 l37 -124 43 0 c39 0 44 3 50 28 20
86 37 134 44 121 4 -8 15 -44 25 -81 l17 -68 44 0 c24 0 44 1 44 3 0 1 16 56
35 121 19 66 35 126 35 133 0 10 -10 13 -32 11 -31 -3 -32 -5 -54 -91 -12 -49
-24 -91 -27 -94 -5 -5 -21 42 -47 145 -10 39 -13 42 -43 42 l-33 0 -24 -95
c-13 -52 -27 -95 -30 -95 -3 0 -16 43 -29 95 l-24 95 -34 0 c-18 0 -33 -5 -33
-11z"/>
<path d="M879 1198 c-24 -10 -55 -30 -69 -43 -25 -23 -26 -23 -84 -8 -47 12
-67 13 -105 3 -120 -30 -248 -128 -286 -220 -11 -25 -29 -60 -41 -79 -21 -32
-22 -35 -6 -60 17 -27 343 -524 347 -529 1 -1 29 23 62 55 70 68 147 116 241
150 81 30 194 42 217 23 8 -7 13 -16 10 -20 -15 -25 109 -140 129 -119 5 5 8
10 5 12 -2 1 -23 15 -47 31 -36 22 -72 73 -72 100 0 7 93 57 135 72 59 21 163
28 215 14 87 -22 90 -23 90 -10 0 12 -44 73 -298 415 l-133 180 -66 23 c-89
32 -187 36 -244 10z m235 -26 l60 -18 173 -238 c96 -131 172 -240 169 -243 -2
-2 -21 5 -42 16 -99 53 -186 49 -269 -14 l-45 -35 -57 78 c-31 42 -110 148
-175 236 -65 87 -118 162 -118 167 0 12 60 55 95 68 38 14 133 6 209 -17z
m-346 -58 c21 -14 362 -461 362 -476 0 -4 -21 2 -47 14 -37 16 -60 19 -113 16
-92 -7 -155 -43 -259 -147 -47 -46 -86 -80 -88 -75 -2 5 -25 43 -52 84 -26 41
-89 140 -140 218 l-91 144 27 49 c79 145 296 239 401 173z"/>
</g>
</svg>
